<?xml version="1.0" encoding="UTF-8"?>
<svg id="Layer_2" xmlns="http://www.w3.org/2000/svg" viewBox="0 0 200 200">
  <defs>
    <style>
      .cls-1 {
        fill: #b4bce1;
      }

      .cls-2 {
        fill: none;
      }

      .cls-3 {
        fill: #000145;
      }
    </style>
  </defs>
  <g id="Layer_1-2" data-name="Layer_1">
    <rect class="cls-2" width="200" height="200"/>
    <g>
      <g>
        <rect class="cls-3" x="63.34" y="118.44" width="10.6" height="40.2"/>
        <polygon class="cls-3" points="115.73 73.67 115.73 63.07 21.54 63.07 21.54 73.67 63.4 73.67 63.4 115.75 74 115.75 74 73.67 115.73 73.67"/>
      </g>
      <path class="cls-1" d="M177.02,91.46c-.96-2.09-2.4-4.58-4.32-7.46.52-1.05.94-2.16,1.24-3.34.3-1.18.46-2.38.46-3.6v-20.02c0-2.88-.7-5.52-2.09-7.92-1.4-2.4-3.29-4.29-5.69-5.69-2.4-1.39-5.04-2.09-7.92-2.09h-74.44v10.6h74.44c1.39,0,2.57.5,3.53,1.5.96,1,1.44,2.2,1.44,3.6v20.02c0,1.4-.48,2.6-1.44,3.6-.96,1-2.14,1.5-3.53,1.5h-74.44v53.38h78.5c2.88,0,5.52-.7,7.92-2.09,2.4-1.39,4.29-3.29,5.69-5.69,1.39-2.4,2.09-5.04,2.09-7.92v-21.98c0-2.18-.48-4.32-1.44-6.41ZM167.86,119.85c0,1.4-.5,2.6-1.5,3.6-1,1-2.2,1.5-3.6,1.5h-62.8c-1.4,0-2.6-.5-3.6-1.5-1-1-1.5-2.2-1.5-3.6v-21.98c0-1.39.5-2.59,1.5-3.6,1-1,2.2-1.5,3.6-1.5h62.8c1.39,0,2.59.5,3.6,1.5,1,1,1.5,2.2,1.5,3.6v21.98Z"/>
    </g>
  </g>
</svg>