<?xml version="1.0" encoding="UTF-8"?>
<svg id="Layer_2" xmlns="http://www.w3.org/2000/svg" viewBox="0 0 430.37 193.39">
  <defs>
    <style>
      .cls-1 {
        fill: #b4bce1;
      }

      .cls-2 {
        fill: #243788;
      }
    </style>
  </defs>
  <g id="Layer_1-2" data-name="Layer_1">
    <g>
      <g>
        <polygon class="cls-2" points="291.35 47.1 330.73 .13 330.73 0 317.12 0 282.06 41.73 251.71 41.73 251.71 0 240.98 0 240.98 94.2 251.71 94.2 251.71 52.46 282.06 52.46 286.65 58.05 296.49 53.34 291.35 47.1"/>
        <polygon class="cls-2" points="297.15 53.99 287.3 58.7 317.12 94.2 330.86 94.2 330.86 94.06 297.15 53.99"/>
      </g>
      <g>
        <polygon class="cls-2" points="215.6 65.93 215.6 82.16 146.52 0 132 0 132 94.2 142.6 94.2 142.6 12.04 211.68 94.2 226.2 94.2 226.2 76.53 215.6 65.93"/>
        <polygon class="cls-2" points="226.2 0 215.6 0 215.6 64.62 226.2 75.22 226.2 0"/>
      </g>
      <g>
        <rect class="cls-2" x="41.86" y="53.99" width="10.6" height="40.2"/>
        <polygon class="cls-2" points="94.2 10.6 94.2 0 0 0 0 10.6 41.86 10.6 41.86 52.68 52.46 52.68 52.46 10.6 94.2 10.6"/>
      </g>
      <path class="cls-2" d="M174.37,193.39v-35.45l-41.64-58.74h11.7l35.1,46.05,34.72-46.05h11.95l-41.64,58.74v35.45h-10.19Z"/>
      <path class="cls-2" d="M281.59,193.39v-83.6h-40.6v-10.6h91.36v10.6h-40.48v83.6h-10.28Z"/>
      <path class="cls-2" d="M123.77,149.3c-.96-2.09-2.4-4.58-4.32-7.46.52-1.05.94-2.16,1.24-3.34.3-1.18.46-2.38.46-3.6v-20.02c0-2.88-.7-5.52-2.09-7.92-1.4-2.4-3.29-4.29-5.69-5.69-2.4-1.39-5.04-2.09-7.92-2.09H31.01v10.6h74.44c1.39,0,2.57.5,3.53,1.5.96,1,1.44,2.2,1.44,3.6v20.02c0,1.4-.48,2.6-1.44,3.6-.96,1-2.14,1.5-3.53,1.5H31.01v53.38h78.5c2.88,0,5.52-.7,7.92-2.09,2.4-1.39,4.29-3.29,5.69-5.69,1.39-2.4,2.09-5.04,2.09-7.92v-21.98c0-2.18-.48-4.32-1.44-6.41ZM114.61,177.69c0,1.4-.5,2.6-1.5,3.6s-2.2,1.5-3.6,1.5h-62.8c-1.4,0-2.6-.5-3.6-1.5-1-1-1.5-2.2-1.5-3.6v-21.98c0-1.39.5-2.59,1.5-3.6,1-1,2.2-1.5,3.6-1.5h62.8c1.39,0,2.59.5,3.6,1.5,1,1,1.5,2.2,1.5,3.6v21.98Z"/>
      <g>
        <polygon class="cls-2" points="344.42 193.39 430.37 193.39 430.37 182.79 355.01 182.79 355.01 151.66 415.59 151.66 415.59 140.93 368.37 140.93 355.01 140.93 344.42 140.93 344.42 193.39"/>
        <polygon class="cls-2" points="358.39 109.79 367.24 109.79 430.37 109.79 430.37 99.2 344.42 99.2 344.42 109.36 344.42 109.79 355.01 109.79 358.39 109.79"/>
      </g>
      <g>
        <path class="cls-2" d="M105.32,67.24V0h10.73v67.24h-10.73Z"/>
        <path class="cls-1" d="M111.26,65.59l4.45.63c.43.06.71.49.59.91l-2.14,7.2c-.05.18-.12.36-.2.53l-2.62,5.75c-.25.56-1.05.56-1.3,0l-2.62-5.75c-.08-.17-.15-.35-.2-.53l-2.14-7.2c-.12-.42.15-.85.59-.91l4.45-.63c.38-.05.77-.05,1.16,0Z"/>
      </g>
    </g>
  </g>
</svg>